<?xml version="1.0" encoding="utf-8"?>
<!-- Generator: Adobe Illustrator 23.0.0, SVG Export Plug-In . SVG Version: 6.00 Build 0)  -->
<svg version="1.1" id="Layer_1" xmlns="http://www.w3.org/2000/svg" xmlns:xlink="http://www.w3.org/1999/xlink" x="0px" y="0px"
	 viewBox="0 0 200 125" style="enable-background:new 0 0 200 125;" xml:space="preserve">
<style type="text/css">
	.st0{fill:#F9A603;stroke:#000000;stroke-miterlimit:10;}
	.st1{fill:none;stroke:#000000;stroke-miterlimit:10;}
	.st2{stroke:#000000;stroke-miterlimit:10;}
	.st3{fill:#B3C100;stroke:#000000;stroke-miterlimit:10;}
</style>
<path class="st0" d="M28.05,34.87c17.77-5.51,49.22-13.5,57.38-1.55c2.13,3.13,1.18,5.44,1.03,16.54c-0.43,31.83,6.99,41.18,0,49.11
	c-2.5,2.84-9.49,4.77-23.78,6.72c-11.37,1.55-25.11,4.44-29.98,0.52c-7.13-5.74-4.89-18.72-3.62-26.36
	c0.84-5.08,0.96-8.67,1.03-14.99c0.06-5.49-2.71-10.92-3.62-17.57c-0.52-3.78-2.52-6.65-2.07-13.44"/>
<line class="st1" x1="72.69" y1="104.14" x2="72.69" y2="120.16"/>
<line class="st1" x1="79.15" y1="120.16" x2="72.95" y2="120.16"/>
<line class="st1" x1="54.08" y1="107.24" x2="54.08" y2="120.16"/>
<line class="st1" x1="47.36" y1="120.16" x2="54.08" y2="120.16"/>
<line class="st1" x1="88.16" y1="76.96" x2="98.5" y2="68"/>
<line class="st1" x1="43.27" y1="81.46" x2="37.07" y2="97.49"/>
<circle class="st2" cx="80.53" cy="57.72" r="1.55"/>
<circle class="st2" cx="66.49" cy="59.17" r="1.55"/>
<path class="st3" d="M111.77,34.41c18.09-5.61,50.1-13.75,58.41-1.58c2.17,3.18,1.21,5.53,1.05,16.84c-0.44,32.4,7.11,41.92,0,49.99
	c-2.54,2.89-9.66,4.86-24.2,6.84c-11.58,1.58-25.56,4.52-30.52,0.53c-7.26-5.84-4.97-19.06-3.68-26.84
	c0.25-1.48,0.43-2.83,0.57-4.16c0,0,0.65-5.8,0.48-11.1c-0.19-6.04-1.51-8.37-3.38-16.92c-0.74-3.39-1.7-8.4-2.41-14.65"/>
<line class="st1" x1="156.5" y1="104.92" x2="156.5" y2="121.23"/>
<line class="st1" x1="163.08" y1="121.23" x2="156.76" y2="121.23"/>
<line class="st1" x1="137.56" y1="108.07" x2="137.56" y2="121.23"/>
<line class="st1" x1="130.72" y1="121.23" x2="137.56" y2="121.23"/>
<line class="st1" x1="160.5" y1="78" x2="164.5" y2="91"/>
<line class="st1" x1="113.5" y1="78" x2="99.5" y2="68"/>
<circle class="st2" cx="125.98" cy="55.72" r="1.58"/>
<circle class="st2" cx="136.18" cy="56.14" r="1.58"/>
<path class="st2" d="M120.82,67.03c-0.81,12.58,5.97,21.03,11.05,21.05c4.93,0.02,10.07-9.39,11.58-16.84
	c0.57-2.8,0.6-5.2,0.53-6.84"/>
<line class="st1" x1="99.5" y1="68" x2="99.5" y2="63"/>
<line class="st1" x1="98.5" y1="62.5" x2="98.5" y2="68.5"/>
<path class="st2" d="M61.82,70.03c-0.81,12.58,5.97,21.03,11.05,21.05c4.93,0.02,10.07-9.39,11.58-16.84c0.57-2.8,0.6-5.2,0.53-6.84
	"/>
</svg>
