<?xml version="1.0" encoding="utf-8"?>
<!-- Generator: Adobe Illustrator 23.0.0, SVG Export Plug-In . SVG Version: 6.00 Build 0)  -->
<svg version="1.1" id="Layer_1" xmlns="http://www.w3.org/2000/svg" xmlns:xlink="http://www.w3.org/1999/xlink" x="0px" y="0px"
	 viewBox="0 0 150 150" style="enable-background:new 0 0 150 150;" xml:space="preserve">
<style type="text/css">
	.st0{fill:#F9A603;stroke:#000000;stroke-miterlimit:10;}
	.st1{fill:none;stroke:#000000;stroke-miterlimit:10;}
	.st2{fill:#42210B;stroke:#000000;stroke-miterlimit:10;}
</style>
<path class="st0" d="M33.88,28.81c22.46-6.96,62.2-17.06,72.51-1.96c2.7,3.95,1.5,6.87,1.31,20.9c-0.54,40.23,8.83,52.04,0,62.06
	c-3.16,3.58-11.99,6.03-30.05,8.49c-14.37,1.96-31.73,5.61-37.89,0.65c-9.01-7.26-6.17-23.66-4.57-33.32
	c1.07-6.43,1.22-10.96,1.31-18.94c0.08-6.94-3.42-13.81-4.57-22.21c-0.65-4.77-3.19-8.4-2.61-16.98"/>
<line class="st1" x1="89.41" y1="116.35" x2="89.41" y2="136.6"/>
<line class="st1" x1="97.58" y1="136.6" x2="89.74" y2="136.6"/>
<line class="st1" x1="65.89" y1="120.27" x2="65.89" y2="136.6"/>
<line class="st1" x1="57.4" y1="136.6" x2="65.89" y2="136.6"/>
<line class="st1" x1="110.31" y1="84.34" x2="120.77" y2="76.5"/>
<line class="st1" x1="34.54" y1="90.22" x2="26.7" y2="110.47"/>
<circle class="st2" cx="63.93" cy="61.48" r="1.96"/>
<circle class="st2" cx="81.57" cy="59.52" r="1.96"/>
<path class="st1" d="M60.01,69.32c-1.01,15.62,7.41,26.11,13.72,26.13c6.12,0.02,12.5-11.65,14.37-20.9
	c0.71-3.48,0.74-6.46,0.65-8.49"/>
</svg>
