<?xml version="1.0" encoding="utf-8"?>
<!-- Generator: Adobe Illustrator 23.0.0, SVG Export Plug-In . SVG Version: 6.00 Build 0)  -->
<svg version="1.1" id="Layer_1" xmlns="http://www.w3.org/2000/svg" xmlns:xlink="http://www.w3.org/1999/xlink" x="0px" y="0px"
	 viewBox="0 0 150 150" style="enable-background:new 0 0 150 150;" xml:space="preserve">
<style type="text/css">
	.st0{fill:none;stroke:#000000;stroke-width:0.75;stroke-miterlimit:10;}
	.st1{fill:#0B6623;stroke:#0B6623;stroke-width:0.75;stroke-miterlimit:10;}
	.st2{fill:none;stroke:#000000;stroke-width:0.25;stroke-miterlimit:10;}
	.st3{fill:#2A8A0A;stroke:#2A8A0A;stroke-width:0.25;stroke-miterlimit:10;}
</style>
<line class="st0" x1="50.64" y1="13.73" x2="50.5" y2="133.5"/>
<path class="st0" d="M32,16.42c8.44-3.59,22.93-8.14,40.35-5.76c9,1.23,19.77,2.64,28.82,11.53c1.79,1.76,12.59,12.72,11.53,28.82
	c-1.03,15.58-12.43,24.86-17.29,28.82c-11.01,8.96-23.03,10.74-28.82,11.53c-7.11,0.96-13.12,0.56-17.29,0"/>
<path class="st1" d="M65.19,98.13c2.4,3.6,5.84,8.25,10.52,13.19c6.5,6.85,12.17,10.86,16.45,13.85c8.04,5.62,15.66,9.53,17.11,7.93
	c0.35-0.39,0.47-1.27,0.7-3.05c0.22-1.65,0.32-2.48-0.04-2.88c-0.6-0.68-1.64-0.11-5.26-0.16c-0.55-0.01-1.14-0.01-1.87-0.09
	c-1.64-0.17-3.07-0.57-4.73-1.08c-3.26-1-5.57-2.26-7.35-3.25c-1.2-0.67-2.77-1.6-5.26-3.37c-2.54-1.81-5.93-4.39-9.77-7.9"/>
<line class="st2" x1="222.64" y1="15.73" x2="222.64" y2="140"/>
<path class="st2" d="M204,18.42c8.44-3.59,22.93-8.14,40.35-5.76c9,1.23,19.77,2.64,28.82,11.53c1.79,1.76,12.59,12.72,11.53,28.82
	c-1.03,15.58-12.43,24.86-17.29,28.82c-11.01,8.96-23.03,10.74-28.82,11.53c-7.11,0.96-13.12,0.56-17.29,0"/>
<path class="st3" d="M231.24,99.37c2.72,4.08,6.62,9.35,11.93,14.95c7.37,7.77,13.8,12.32,18.65,15.71
	c9.12,6.37,17.76,10.81,19.41,8.99c0.4-0.44,0.53-1.44,0.8-3.45c0.24-1.87,0.37-2.81-0.04-3.27c-0.68-0.77-1.86-0.12-5.96-0.19
	c-0.63-0.01-1.29-0.01-2.12-0.1c-1.86-0.19-3.48-0.65-5.36-1.23c-3.7-1.13-6.32-2.57-8.34-3.69c-1.37-0.76-3.14-1.82-5.96-3.82
	c-2.88-2.05-6.72-4.98-11.07-8.95"/>
</svg>
